<?xml version="1.0" standalone="no"?>
<!DOCTYPE svg PUBLIC "-//W3C//DTD SVG 20010904//EN"
 "http://www.w3.org/TR/2001/REC-SVG-20010904/DTD/svg10.dtd">
<svg version="1.0" xmlns="http://www.w3.org/2000/svg"
 width="512.000000pt" height="512.000000pt" viewBox="0 0 512.000000 512.000000"
 preserveAspectRatio="xMidYMid meet">
<metadata>
Created by potrace 1.14, written by Peter Selinger 2001-2017
</metadata>
<g transform="translate(0.000000,512.000000) scale(0.100000,-0.100000)"
fill="#000000" stroke="none">
<path d="M250 3415 c0 -20 7 -24 51 -30 62 -9 97 -37 109 -90 13 -54 12 -1251
0 -1339 -17 -114 -54 -166 -132 -183 -22 -4 -28 -11 -28 -32 l0 -26 237 2
c238 2 238 2 238 23 0 19 -10 25 -68 39 -118 30 -152 71 -167 202 -6 50 -9
325 -8 681 l3 598 334 -763 c184 -419 340 -768 347 -776 7 -7 19 -11 26 -8 8
3 144 337 303 743 158 407 290 741 292 744 2 2 2 -300 1 -671 -3 -623 -4 -677
-20 -702 -24 -35 -47 -46 -116 -55 -51 -6 -57 -10 -60 -32 l-3 -25 436 0 435
0 0 28 c0 25 -3 27 -37 27 -60 0 -106 28 -121 74 -20 61 -13 1462 7 1493 18
27 45 39 105 48 40 6 46 10 46 31 0 24 0 24 -122 24 -68 0 -214 -3 -325 -7
l-201 -6 -198 -509 c-110 -282 -201 -503 -205 -496 -4 7 -107 239 -229 516
l-222 502 -354 -1 -354 -2 0 -22z"/>
<path d="M2600 3415 c0 -19 7 -24 46 -30 26 -3 56 -11 68 -17 52 -23 51 -5 54
-703 3 -657 -1 -754 -34 -816 -17 -33 -64 -67 -106 -76 -22 -4 -28 -11 -28
-32 l0 -26 240 0 241 0 -3 24 c-3 21 -11 26 -53 36 -69 16 -122 43 -144 74
-40 57 -44 92 -48 531 -3 234 -3 443 -1 465 l3 40 536 -585 535 -585 87 0 86
0 4 750 c2 508 7 763 15 789 16 58 42 88 100 116 39 19 52 30 52 47 0 21 -1
21 -240 22 l-240 0 0 -24 c0 -21 6 -25 59 -36 120 -23 165 -71 182 -196 5 -37
8 -229 7 -426 l-3 -359 -493 521 -492 520 -215 0 -215 0 0 -24z"/>
<path d="M4515 2084 c-84 -31 -125 -95 -125 -194 0 -33 6 -75 14 -93 32 -75
113 -117 226 -117 113 0 194 42 226 117 17 38 18 140 3 180 -17 46 -69 92
-123 108 -62 19 -169 18 -221 -1z"/>
</g>
</svg>
